<svg width="16" height="16" viewBox="0 0 16 16" fill="none" xmlns="http://www.w3.org/2000/svg">
<path d="M1.71429 16C1.2381 16 0.833524 15.8331 0.500571 15.4994C0.166857 15.1665 0 14.7619 0 14.2857V3C0 2.77752 0.0438095 2.55924 0.131429 2.34514C0.218286 2.13105 0.341333 1.94438 0.500571 1.78514L1.78514 0.500571C1.94438 0.341333 2.13105 0.218286 2.34514 0.131429C2.55924 0.0438095 2.77752 0 3 0H13C13.2225 0 13.4408 0.0438095 13.6549 0.131429C13.869 0.218286 14.0556 0.341333 14.2149 0.500571L15.4994 1.78514C15.6587 1.94438 15.7817 2.13105 15.8686 2.34514C15.9562 2.55924 16 2.77752 16 3V14.2857C16 14.7619 15.8331 15.1665 15.4994 15.4994C15.1665 15.8331 14.7619 16 14.2857 16H1.71429ZM1.85714 2.85714H14.1429L13 1.71429H3L1.85714 2.85714ZM1.71429 4.57143V14.2857H14.2857V4.57143H1.71429ZM8 12.8571L11.4286 9.42857L10.2149 8.21486L8.85714 9.57143V6H7.14286V9.57143L5.78514 8.21486L4.57143 9.42857L8 12.8571ZM1.71429 14.2857H14.2857H1.71429Z" fill="#333333"/>
</svg>
