<svg width="16" height="14" viewBox="0 0 16 14" fill="none" xmlns="http://www.w3.org/2000/svg">
<path d="M1.5 14C1.08333 14 0.729333 13.8297 0.438 13.489C0.146 13.1491 0 12.7361 0 12.25V1.75C0 1.26389 0.146 0.850889 0.438 0.511C0.729333 0.170334 1.08333 0 1.5 0H14.5C14.9167 0 15.2707 0.170334 15.562 0.511C15.854 0.850889 16 1.26389 16 1.75V12.25C16 12.7361 15.854 13.1491 15.562 13.489C15.2707 13.8297 14.9167 14 14.5 14H1.5ZM8 8.16667L1.5 3.81617V12.25H14.5V3.81617L8 8.16667ZM8 6.1005L14.5 1.75H1.5L8 6.1005ZM1.5 3.81617V1.75V12.25V3.81617Z" fill="#333333"/>
</svg>
